<svg id="visual" viewBox="0 0 900 600" width="900" height="600" xmlns="http://www.w3.org/2000/svg" xmlns:xlink="http://www.w3.org/1999/xlink" version="1.1"><rect x="0" y="0" width="900" height="600" fill="#001122"></rect><defs><linearGradient id="grad1_0" x1="33.3%" y1="0%" x2="100%" y2="100%"><stop offset="20%" stop-color="#001122" stop-opacity="1"></stop><stop offset="80%" stop-color="#001122" stop-opacity="1"></stop></linearGradient></defs><defs><linearGradient id="grad2_0" x1="0%" y1="0%" x2="66.7%" y2="100%"><stop offset="20%" stop-color="#001122" stop-opacity="1"></stop><stop offset="80%" stop-color="#001122" stop-opacity="1"></stop></linearGradient></defs><g transform="translate(900, 0)"><path d="M0 459.7C-19.5 388.4 -39.1 317.1 -70.5 309.1C-102 301 -145.4 356.2 -174.4 362.2C-203.4 368.2 -218.1 325 -239.4 300.2C-260.7 275.4 -288.7 269 -322.1 256.9C-355.5 244.7 -394.2 226.8 -414.2 199.5C-434.1 172.1 -435.2 135.2 -439.7 100.4C-444.1 65.5 -451.9 32.8 -459.7 0L0 0Z" fill="#4087f3"></path></g><g transform="translate(0, 600)"><path d="M0 -459.7C31.6 -437.8 63.2 -415.9 90.8 -397.8C118.4 -379.7 142 -365.4 171.8 -356.8C201.7 -348.2 237.7 -345.2 264.4 -331.5C291 -317.8 308.2 -293.3 341.7 -272.5C375.2 -251.6 425 -234.5 414.2 -199.5C403.4 -164.4 332 -111.4 329.5 -75.2C327 -39 393.4 -19.5 459.7 0L0 0Z" fill="#4087f3"></path></g></svg>